<?xml version="1.0" encoding="UTF-8"?> <svg xmlns="http://www.w3.org/2000/svg" width="145" height="49" viewBox="0 0 145 49"><g fill="#000" fill-rule="nonzero"><path d="M0 48.684V38.07h6.388V11.403H0V0h33.964v11.403h-6.36V38.07h6.36v10.614zM64.168 49V38.128h4.924V26.746c0-3.414-2.403-4.971-5.48-4.971-3.899 0-6.859 2.935-6.859 6.918v9.435h5.07V49H35.27V38.128h4.807V21.714H35.27V10.842h20.956v7.518c.351-.27.674-.69.967-1.048 3.84-4.493 8.206-6.08 13.98-6.08 8.09 0 14.654 3.354 14.654 12.519v14.377h4.308V49H64.168zM134.342 26.44l-14.47 1.589c-.177-4-1.005-8.206-5.888-8.206-6.213 0-6.717 5.147-6.717 10.088V30c0 4.942.474 10.089 6.717 10.089 3.255 0 6.155-1.853 6.155-5.794h14.411l-.119 1.235C132.064 47.176 121.471 49 113.837 49c-11.954 0-23.702-5.853-23.702-19.089v.03c0-13.266 11.747-19.09 23.702-19.09-.03.03 18.73-1.176 20.505 15.59"></path><path d="M145 41.763c0 3.277-2.625 5.921-5.878 5.921s-5.879-2.644-5.879-5.92c0-3.278 2.626-5.922 5.879-5.922 3.224 0 5.878 2.644 5.878 5.921"></path></g></svg> 