<?xml version="1.0" encoding="UTF-8"?> <svg xmlns="http://www.w3.org/2000/svg" width="320" height="64" viewBox="0 0 320 64"><g fill="none" fill-rule="evenodd"><path fill="#000" fill-rule="nonzero" d="M8.183 8.486h6.82c6.138 0 8.866 1.97 8.866 6.023 0 3.475-2.728 5.906-8.183 5.906H8.183V8.486zM0 48.326h16.594c8.752 0 17.504-3.126 17.504-13.434 0-6.022-4.205-10.654-10.002-11.35v-.115c4.774-1.506 7.957-4.98 7.957-10.308 0-8.57-7.16-11.813-14.094-11.813H0v47.02zm8.183-20.73h7.843c6.592 0 9.775 1.737 9.775 6.602 0 6.138-5.91 6.948-10.116 6.948H8.183v-13.55z"></path><path d="M43.864 49.167V.496"></path><path fill="#000" fill-rule="nonzero" d="M39.621.496h8.6v48.67h-8.6zM61.613 32.653c0-5.07 3.41-9.669 9.206-9.669 5.683 0 9.207 4.717 9.207 9.669 0 5.07-3.41 9.668-9.207 9.668-5.796.118-9.206-4.599-9.206-9.668m-7.843 0c0 10.258 7.502 16.98 17.05 16.98 9.433 0 17.049-6.84 17.049-16.98 0-10.141-7.615-16.98-17.05-16.98-9.434 0-17.049 6.839-17.049 16.98M100.843 32.653c0-5.07 3.41-9.669 9.207-9.669 5.683 0 9.207 4.717 9.207 9.669 0 5.07-3.41 9.668-9.207 9.668-5.684.118-9.207-4.599-9.207-9.668m-7.728 0c0 10.258 7.502 16.98 17.049 16.98 9.434 0 17.05-6.84 17.05-16.98 0-10.141-7.616-16.98-17.05-16.98-9.548 0-17.05 6.839-17.05 16.98M132.575 16.484h7.605v4.98h.117c1.403-3.011 4.446-5.79 9.827-5.79 4.913 0 8.423 1.968 10.06 5.904 2.34-4.052 5.733-5.905 10.53-5.905 8.54 0 11.581 6.021 11.581 13.664v18.99h-8.072V30.263c0-3.937-1.17-7.41-5.966-7.41-5.03 0-6.902 4.168-6.902 8.22v17.254H153.4v-18.99c0-3.937-1.638-6.484-5.499-6.484-5.264 0-7.37 3.821-7.37 8.105v17.369h-8.072V16.484h.116zM215.03 32.579c0 5.057-3.445 9.643-9.3 9.643-5.74 0-9.3-4.586-9.3-9.643 0-5.058 3.445-9.762 9.3-9.762 5.74.117 9.3 4.704 9.3 9.762zm-26.177 16.23h7.463v-4.822h.115c2.296 3.881 6.429 5.646 10.906 5.646 9.758 0 15.614-7.41 15.614-16.937 0-9.526-6.2-16.935-15.27-16.935-5.97 0-9.07 2.822-10.677 4.94h-.23V0h-7.922v48.809h.001zM234.993 29.588c.588-4.717 3.526-7.665 8.344-7.665 5.053 0 8.108 2.948 8.226 7.665h-16.57zm24.678 6.013v-2.24c0-11.32-6.11-17.688-15.159-17.688-9.754 0-17.627 6.84-17.627 16.98s7.756 16.98 17.627 16.98c5.053 0 9.871-1.77 13.631-6.485l-5.758-4.363c-1.998 2.476-4.7 4.363-8.695 4.363-4.466 0-8.108-2.949-8.696-7.665h24.678v.118zM263.607 16.37h7.712v5.114h.112c1.676-3.719 5.03-5.81 9.053-5.81 1.006 0 1.9.232 2.795.464v7.67c-1.23-.349-2.46-.581-3.69-.581-7.265 0-8.27 6.275-8.27 8.018v17.082h-7.712V16.37zM303.18 22.841c5.76 0 9.331 3.816 9.331 9.366 0 5.318-3.571 9.364-9.446 9.364-5.299 0-9.33-4.162-9.33-9.249.114-5.665 3.916-9.48 9.446-9.48zm9.447-6.358v4.74h-.116c-2.303-3.816-6.45-5.55-10.943-5.55-9.792 0-15.666 7.284-15.666 16.649 0 9.018 6.22 16.301 15.781 16.301 3.917 0 8.064-1.503 10.368-4.625h.115v2.313c0 6.242-2.304 10.636-10.022 10.636-4.378 0-7.718-1.618-10.944-4.624l-4.723 6.474C290.97 62.844 296.27 64 302.144 64 314.47 64 320 56.716 320 45.27V16.367h-7.373v.116z"></path></g></svg> 