<?xml version="1.0" encoding="UTF-8"?> <svg xmlns="http://www.w3.org/2000/svg" width="185" height="47" viewBox="0 0 185 47"><g fill="#3A6DA4" fill-rule="nonzero"><path d="M104.329 15.149c1.202-.566 2.308-1.086 3.51-1.369 4.327-1.038 8.319-.566 11.732 2.502 2.308 2.076 3.75 4.72 4.376 7.74 1.057 5.144.625 10.147-2.02 14.82-2.355 4.153-6.058 6.466-10.722 7.41-3.366.707-6.78.471-10.146.047-1.875-.236-3.702-.614-5.53-.944-.48-.095-.672-.283-.624-.803.144-4.247.096-8.495.192-12.743.144-6.89.048-13.828-.048-20.719 0-1.368-.048-2.784-.385-4.153-.48-1.888-1.394-2.69-3.318-2.926-.865-.094-1.058-.425-.865-1.228.048-.283.288-.283.48-.33 3.8-.708 7.598-1.368 11.348-2.076a18.97 18.97 0 0 0 1.587-.33c.53-.142.625.047.577.471-.192 4.531-.144 9.062-.144 13.546v1.085zm-.048 17.415c0 3.54.049 6.891.145 10.242.048 1.322.048 1.322 1.346 1.51 1.779.189 3.366-.236 4.664-1.558 1.346-1.368 2.164-3.02 2.74-4.766 1.25-3.776 1.587-7.646 1.203-11.611-.193-1.888-.625-3.728-1.443-5.428-.625-1.321-1.442-2.548-2.74-3.35-1.78-1.086-3.607-.945-5.482-.284-.336.094-.432.283-.432.566.047 4.91-.193 9.865 0 14.68zM18.95.355h18.065c.542 0 .788.05.788.686.098 2.498.049 5.046.098 7.543.05 1.47.05 2.94.099 4.41 0 .392-.099.637-.493.685-.541.098-1.083.588-1.575.343-.443-.196-.443-.93-.59-1.42-.837-2.058-1.723-4.115-3.25-5.781-1.722-1.96-3.888-2.988-6.546-3.037-2.51-.05-5.02 0-7.53-.05-.444 0-.64.099-.64.588-.05 2.4-.148 4.85-.247 7.25-.147 3.43-.049 6.908-.147 10.337 0 .49.049.637.64.588a133.94 133.94 0 0 1 4.43-.196c1.82-.05 3.15-.833 4.085-2.352.69-1.126 1.034-2.351 1.28-3.624.049-.343.197-.441.492-.441 1.526-.098 1.526-.098 1.526 1.47v13.618c0 .54-.099.784-.738.735-1.182-.05-1.182 0-1.477-1.175-.345-1.421-.788-2.793-1.821-3.87-.837-.882-1.87-1.372-3.052-1.421-1.575-.049-3.15-.147-4.775-.245-.443-.049-.59.05-.59.54 0 4.408.098 8.817.443 13.226.098 1.078.295 2.155.689 3.184.59 1.715 1.772 2.645 3.593 2.841.69.05 1.378.196 2.067.294.345.05.542.196.493.588-.05 1.52.196 1.323-1.28 1.323H.59C.098 47.04 0 46.796 0 46.355c0-1.176 0-1.176 1.132-1.42.246-.05.542-.148.788-.148 2.756-.196 3.593-1.861 4.134-3.919.345-1.322.443-2.743.493-4.115.295-7.298.443-14.646.196-21.946a125.35 125.35 0 0 0-.295-6.074 13.771 13.771 0 0 0-.738-3.429C5.02 3.59 3.74 2.757 1.969 2.56L.492 2.413c-.295 0-.443-.098-.443-.44C.1.063-.295.307 1.624.307c5.71.048 11.518.048 17.327.048z"></path><path d="M47.746 46.998c-3.287.05-6.573-.831-9.39-3.226-2.629-2.2-4.131-5.085-4.882-8.458-1.033-4.4-1.033-8.8.563-13.053 2.16-5.817 6.244-9.24 12.16-10.07 2.957-.44 5.868-.245 8.685.88 3.943 1.564 6.619 4.497 7.98 8.604 1.925 5.866 1.925 11.684-.938 17.257-2.395 4.693-6.291 7.235-11.362 7.968-.844.098-1.69.05-2.816.098zm6.713-16.523c.047-2.493-.094-5.427-.657-8.36-.376-2.053-.986-4.058-2.16-5.769-1.784-2.64-4.976-2.786-6.807-.293-.563.782-.939 1.71-1.268 2.689-.704 2.346-.939 4.79-1.08 7.284-.187 3.666-.14 7.382.564 11 .376 2.101.986 4.105 2.206 5.866 1.737 2.493 4.93 2.493 6.667.048.704-.977 1.127-2.102 1.455-3.226.845-2.884.94-5.817 1.08-9.24zM146.338 27.994h-8.879c-.617 0-.807.098-.76.782.095 1.953.285 3.907.855 5.764 1.614 5.03 5.413 7.717 10.54 7.52 2.184-.048 4.18-.682 5.983-2.002.237-.195.523-.586.855-.097.285.44.76.732.237 1.367-2.468 3.028-5.603 4.836-9.353 5.422-3.893.635-7.692.097-11.157-2.051-3.561-2.247-5.84-5.52-6.837-9.622-1.377-5.666-.855-11.087 2.231-16.118 2.422-3.957 5.983-6.154 10.446-6.79 2.469-.34 4.89-.292 7.264.587 3.324 1.27 5.46 3.76 6.79 7.033.949 2.393 1.282 4.933 1.376 7.521 0 .489-.094.636-.617.636-2.944 0-5.983 0-8.974.048 0-.049 0-.049 0 0zm-.333-2.589c.38 0 .428-.341.428-.683 0-1.466-.095-2.93-.285-4.396-.238-1.66-.57-3.273-1.472-4.69-.997-1.562-2.706-1.904-4.178-.781-.475.342-.855.782-1.187 1.319-1.71 2.686-2.28 5.763-2.47 8.89-.047.488.333.39.57.39h4.226l4.368-.049zM183.005 18.125c0 1.27-.05 2.54 0 3.81.048.88-.724.635-1.158.88-.482.244-.482-.245-.579-.538-.771-2.198-1.638-4.298-3.326-5.96-1.399-1.367-3.135-2.002-5.015-1.806-2.46.244-4.05 2.295-3.955 4.933.05 2.052 1.303 3.224 2.894 4.25 1.978 1.27 4.195 2.051 6.365 3.028 1.977.88 3.81 2.003 5.112 3.858.916 1.32 1.301 2.785 1.398 4.348.096 2.344-.241 4.59-1.544 6.594-1.783 2.833-4.484 4.346-7.666 5.03-3.038.684-6.076.489-9.162.05-1.928-.294-3.857-.684-5.738-1.368-.434-.147-.58-.342-.58-.83-.047-2.931-.095-5.862-.191-8.793 0-.439.241-.488.53-.585 1.158-.342.965-.392 1.35.635.773 2.051 1.737 4.054 3.231 5.666 1.881 2.051 4.243 2.833 6.944 2.344a4.81 4.81 0 0 0 3.809-3.858c.386-2.247-.337-3.908-2.266-5.129-1.64-1.026-3.424-1.71-5.209-2.393-1.977-.733-3.857-1.66-5.4-3.224-1.977-2.051-2.556-4.542-2.363-7.278.434-5.275 4.63-8.645 9.21-9.475 4.149-.733 8.247-.244 12.2 1.074.58.196.917.489.87 1.221M79.88 19.2c.39-.673.781-1.394 1.22-2.067 1.514-2.354 3.516-4.18 6.3-4.9 1.757-.433 3.466-.337 5.126.384.489.192.636.432.391.96a370.513 370.513 0 0 0-2.979 7.833c-.195.48-.341.48-.78.24-2.589-1.441-5.274-1.873-8.057-.72-.928.384-1.367.96-1.416 2.066-.098 3.652-.147 7.304-.05 10.907.05 2.259.05 4.517.49 6.776.39 2.163 1.22 2.883 3.466 3.027l1.465.145c.293 0 .39.096.44.432.097 1.442.097 1.393-1.368 1.393H66.501c-.293 0-.732.145-.83-.24a3.08 3.08 0 0 1 .05-1.49c0-.048.243-.096.34-.144.538-.096 1.124-.144 1.612-.289 1.563-.432 2.1-1.633 2.295-3.027.293-2.21.244-4.469.293-6.727.098-2.74.147-5.478.049-8.265-.049-2.066 0-4.18-.39-6.247-.391-2.066-1.173-2.643-3.614-2.931-.635-.096-.977-.72-.684-1.297.098-.192.342-.192.489-.24 3.32-.673 6.64-1.346 10.01-1.97.976-.193 2.001-.385 2.978-.577.879-.193.879-.193.83.72-.147 2.067 0 4.133-.049 6.248z"></path></g></svg> 