<?xml version="1.0" encoding="UTF-8"?> <svg xmlns="http://www.w3.org/2000/svg" width="290" height="61" viewBox="0 0 290 61"><g fill="none" fill-rule="nonzero"><path fill="#D40309" d="M0 0h290v61H0z"></path><path fill="#FFF" d="M33.827 40.531C33.543 44.657 32.07 49 23.912 49H11.96V11h11.953c7.309 0 9.518 3.691 9.518 8.794v1.249c0 5.537-2.946 6.894-5.665 7.6 4.532.868 5.892 3.637 6.062 7.166.056.705.056 1.682.056 2.225 0 .543 0 1.737-.056 2.497zm-7.818-20.085c0-3.312-1.813-4.126-3.966-4.126H19.04v9.88h3.23c2.945 0 3.739-1.791 3.739-4.451v-1.303zm.51 14.928c-.17-2.66-1.474-3.8-4.533-3.8H19.04v12.051h2.833c3.002 0 4.419-.814 4.645-3.745.057-.651.057-1.737.057-2.389 0-.705 0-1.52-.057-2.117zM50.003 48.566v-2.55C48.588 47.373 47.01 49 43.963 49c-4.244 0-6.094-2.821-6.094-6.89V19h6.802v20.344c0 1.627.163 3.742 2.503 3.742 2.883 0 2.883-2.82 2.883-4.177V19h6.747v29.566h-6.801zM69.494 50c-4.458 0-8.704-1.421-8.704-7.873v-3.39h6.422v3.116c0 1.75.743 3.117 2.6 3.117 1.858 0 2.495-1.585 2.495-2.734 0-1.094-.16-2.624-1.858-3.663l-5.731-3.554c-2.282-1.421-3.875-3.827-3.875-6.834v-1.367c0-4.428 3.344-7.818 9.235-7.818 4.457 0 8.544 1.859 8.544 7.928v3.225H72.2v-3.061c0-1.64-.583-3.062-2.44-3.062-1.911 0-2.548 1.64-2.548 2.788s.212 2.57 1.857 3.554l5.573 3.499c2.335 1.53 4.086 3.608 4.086 6.834v1.312C78.78 46.83 75.225 50 69.494 50M81.718 11h6.976v6.5h-6.976V11zm0 9.231h6.976V50h-6.976V20.231zM105.865 49.944V28.96c0-1.678-.163-3.86-2.503-3.86-2.938 0-2.938 2.909-2.938 4.308V50h-6.747V19.448h6.801v2.63c1.415-1.4 2.993-3.078 6.04-3.078 4.244 0 6.094 2.854 6.094 7.106V50h-6.747v-.056zM125.208 50c-2.777 0-4.665-.548-6.386-1.698-2.221-1.479-3.22-3.89-3.22-7.394V27.982c0-3.724 1.332-5.86 3.22-7.175 1.888-1.314 4.164-1.807 6.274-1.807 2.777 0 5.442.767 7.275 2.574 1.665 1.643 2.11 4.218 2.11 5.86v8.49h-12.16v5.258c0 1.314.166 3.779 2.775 3.779 1.944 0 2.721-1.534 2.721-3.396v-2.848h6.72v3.122c-.112 6.463-4.998 8.161-9.33 8.161zm2.554-22.894c0-1.862-.944-3.067-2.777-3.067-2.443 0-2.72 2.3-2.72 3.067v3.943h5.441v-3.943h.056zM145.662 50c-4.678 0-9.133-1.421-9.133-7.873v-3.39h6.739v3.116c0 1.75.78 3.117 2.729 3.117s2.673-1.585 2.673-2.734c0-1.094-.167-2.624-1.95-3.663l-6.014-3.554c-2.395-1.421-4.065-3.827-4.065-6.834v-1.367c0-4.428 3.508-7.818 9.69-7.818 4.677 0 8.966 1.859 8.966 7.928v3.225h-6.739v-3.061c0-1.64-.613-3.062-2.506-3.062-2.005 0-2.673 1.64-2.673 2.788s.223 2.57 1.95 3.554l5.847 3.499c2.45 1.53 4.288 3.608 4.288 6.834v1.312c0 4.812-3.787 7.983-9.802 7.983M167.614 50c-4.692 0-9.16-1.421-9.16-7.873v-3.39h6.759v3.116c0 1.75.781 3.117 2.736 3.117s2.681-1.585 2.681-2.734c0-1.094-.167-2.624-1.955-3.663l-6.032-3.554c-2.402-1.421-4.078-3.827-4.078-6.834v-1.367c0-4.428 3.52-7.818 9.72-7.818 4.69 0 8.992 1.859 8.992 7.928v3.225h-6.758v-3.061c0-1.64-.615-3.062-2.57-3.062-2.011 0-2.681 1.64-2.681 2.788s.223 2.57 1.954 3.554l5.865 3.499c2.458 1.53 4.301 3.608 4.301 6.834v1.312c0 4.812-3.741 7.983-9.774 7.983M205.819 49h-7.532l-3.74-25.768L190.374 49h-7.479l-6.503-38h7.045l3.577 28.215L191.187 11h6.395l4.172 28.215L205.385 11h6.883zM223.896 50c-2.785 0-4.678-.548-6.404-1.698-2.228-1.479-3.23-3.89-3.23-7.394V27.982c0-3.724 1.336-5.86 3.23-7.175 1.893-1.314 4.176-1.807 6.292-1.807 2.785 0 5.458.767 7.296 2.574 1.67 1.643 2.116 4.218 2.116 5.86v8.49h-12.197v5.258c0 1.314.168 3.779 2.785 3.779 1.949 0 2.728-1.534 2.728-3.396v-2.848h6.627v3.122c0 6.463-4.9 8.161-9.243 8.161zm2.506-22.894c0-1.862-.947-3.067-2.729-3.067-2.45 0-2.729 2.3-2.729 3.067v3.943h5.458v-3.943zM245.791 50c-2.776 0-4.663-.548-6.385-1.698-2.221-1.479-3.22-3.89-3.22-7.394V27.982c0-3.724 1.332-5.86 3.22-7.175C241.294 19.493 243.57 19 245.68 19c2.776 0 5.441.767 7.273 2.574 1.666 1.643 2.11 4.218 2.11 5.86v8.49h-12.159v5.258c0 1.314.167 3.779 2.776 3.779 1.944 0 2.72-1.534 2.72-3.396v-2.848h6.72v3.122c-.113 6.463-4.998 8.161-9.33 8.161zm2.554-22.894c0-1.862-.944-3.067-2.72-3.067-2.443 0-2.72 2.3-2.72 3.067v3.943h5.44v-3.943zM270.984 50l-5.955-15.076V50h-6.919V11h6.92v20.429l5.898-11.198h7.657l-7.034 12.454L279.038 50z"></path></g></svg> 