<?xml version="1.0" encoding="UTF-8"?> <svg xmlns="http://www.w3.org/2000/svg" width="180" height="56" viewBox="0 0 180 56"><g fill="none" fill-rule="nonzero"><path fill="#F04327" d="M0 0h60.469v56H0z"></path><path fill="#050607" d="M60.469 0h60.469v56H60.469z"></path><path fill="#4972BB" d="M119.531 0H180v56h-60.469z"></path><path fill="#FFF" d="M37.519 42.977v-16.22c0-2.397-.54-4.133-1.583-5.237-1.042-1.105-2.769-1.641-5.143-1.641-1.114 0-2.266.284-3.524.82-1.26.537-2.23 1.2-2.914 2.02v20.257h-7.48V14.8h5.395l1.367 2.619c2.05-2.051 5.035-3.092 9.027-3.092 3.812 0 6.833 1.01 9.027 2.997C43.885 19.343 45 22.12 45 25.717v17.26h-7.481zM87.52 20.026c3.262 0 5.605.673 6.998 2.05 1.427 1.377 2.106 3.746 2.106 7.109 0 3.17-.713 5.476-2.14 6.917-1.426 1.473-3.736 2.21-6.997 2.21-1.699 0-3.193-.48-4.484-1.473V21.884c1.325-1.217 2.853-1.858 4.518-1.858zm1.597 23.922c4.62 0 8.254-1.249 10.937-3.779 2.684-2.53 4.008-6.116 4.008-10.792 0-10.023-4.823-15.051-14.504-15.051-2.581 0-4.755.8-6.555 2.401v-1.921h-7.066v38.59h7.066V42.698c1.834.833 3.872 1.25 6.114 1.25zM156.057 20.983a7.677 7.677 0 0 0-3.997-1.104c-1.572 0-2.981.694-4.193 2.083-1.212 1.388-1.835 3.06-1.835 5.048v15.967h-6.813V14.799h6.813v2.682c1.9-2.114 4.423-3.155 7.568-3.155 2.326 0 4.094.346 5.306 1.01l-2.85 5.647z"></path></g></svg> 